<?xml version="1.0" encoding="UTF-8"?>
<!DOCTYPE svg PUBLIC "-//W3C//DTD SVG 1.1//EN" "http://www.w3.org/Graphics/SVG/1.1/DTD/svg11.dtd">
<!-- Creator: CorelDRAW 2019 (64-Bit) -->
<svg xmlns="http://www.w3.org/2000/svg" xml:space="preserve" width="127.632mm" height="38.9041mm" version="1.1" style="shape-rendering:geometricPrecision; text-rendering:geometricPrecision; image-rendering:optimizeQuality; fill-rule:evenodd; clip-rule:evenodd"
viewBox="0 0 13297.18 4053.16"
 xmlns:xlink="http://www.w3.org/1999/xlink">
 <defs>
  <style type="text/css">
   <![CDATA[
    .fil0 {fill:none}
    .fil3 {fill:#003A72}
    .fil2 {fill:#2870B8}
    .fil1 {fill:#69A8E6}
   ]]>
  </style>
 </defs>
 <g id="Layer_x0020_1">
  <metadata id="CorelCorpID_0Corel-Layer"/>
  <g id="_1838829325664">
   <rect class="fil0" x="0" y="0" width="13297.18" height="4053.16"/>
   <g>
    <g>
     <path class="fil1" d="M1062.4 1473.47c-8.41,3.12 -15.49,8.92 -20.14,16.63 -4.98,8.24 -6.68,18.08 -4.98,27.53 1.99,10.77 8.29,20.24 18.16,25.38l527.93 276.33c3.8,2.03 8.42,2.49 12.52,1.01 3.05,-1.08 5.51,-3.24 7.08,-6.05 1.53,-2.91 1.95,-6.19 1.2,-9.42 -1,-3.98 -3.55,-7.34 -6.95,-9.5l-503.31 -319.02c-9.49,-6.06 -21.07,-6.72 -31.52,-2.88zm174.33 -217.75l0 0c11.1,-1.04 22.06,2.65 29.67,10.95l403.56 438.41c2.77,2.99 4.37,6.93 4.27,10.98 -0.08,3.28 -1.32,6.4 -3.62,8.75 -2.2,2.36 -5.18,3.77 -8.41,4.06 -4.35,0.33 -8.63,-1.28 -11.81,-4.23l-438.42 -403.61c-8.17,-7.45 -11.81,-18.22 -10.99,-29.17 0.84,-9.63 5.02,-18.58 11.94,-25.3 6.51,-6.26 14.85,-9.99 23.81,-10.86zm224.71 -165.16l0 0c10.99,1.82 20.65,8.21 25.87,18.2l276.34 527.93c1.89,3.6 2.41,7.82 1.29,11.73 -0.95,3.15 -2.98,5.86 -5.76,7.54 -2.79,1.7 -6,2.28 -9.21,1.7 -4.26,-0.74 -7.95,-3.48 -10.27,-7.08l-319.07 -503.34c-5.93,-9.38 -6.69,-20.69 -3.04,-31.06 3.28,-9.03 9.63,-16.66 18.09,-21.34 7.83,-4.32 16.95,-5.81 25.77,-4.28zm259.84 -101.43l0 0c-8.17,-3.78 -17.34,-4.64 -26.03,-2.49 -9.37,2.32 -17.46,8 -22.97,15.92 -6.21,9.03 -8.46,20.19 -5.1,30.8l177.89 568.67c1.32,4.15 4.19,7.75 8.13,9.57 2.94,1.38 6.25,1.67 9.32,0.7 3.16,-0.95 5.76,-2.97 7.5,-5.79 2.07,-3.44 2.65,-7.71 1.78,-11.61l-130.3 -581.49c-2.43,-10.98 -10.1,-19.64 -20.22,-24.29zm277.21 -30.72l0 0c-6.93,-5.77 -15.5,-8.95 -24.49,-9.12 -9.66,-0.17 -18.95,3.19 -26.29,9.46 -8.33,7.04 -13.4,17.36 -12.94,28.39l24.62 595.37c0.22,4.32 2.08,8.5 5.44,11.32 2.45,2.11 5.55,3.24 8.78,3.1 3.28,-0.07 6.34,-1.38 8.71,-3.65 2.98,-2.82 4.65,-6.71 4.8,-10.78l24.63 -595.37c0.5,-11.2 -4.72,-21.69 -13.26,-28.73zm275.71 42.08l0 0c-5.18,-7.3 -12.59,-12.69 -21.25,-15.14 -9.29,-2.69 -19.16,-1.86 -27.87,2.29 -9.95,4.72 -17.41,13.3 -19.86,24.12l-130.25 581.49c-0.96,4.19 -0.24,8.75 2.24,12.3 1.86,2.71 4.55,4.52 7.72,5.27 3.18,0.75 6.5,0.29 9.4,-1.27 3.57,-1.92 6.18,-5.28 7.39,-9.17l177.87 -568.69c3.37,-10.77 1.05,-22.11 -5.39,-31.21zm255.45 112.05l0 0c3.85,10.45 3.16,21.96 -2.87,31.46l-319.03 503.3c-2.16,3.45 -5.55,6.02 -9.49,6.98 -3.24,0.78 -6.55,0.32 -9.42,-1.26 -2.85,-1.52 -4.96,-4 -6.04,-7.04 -1.5,-4.1 -1.04,-8.66 0.98,-12.51l276.35 -527.93c5.15,-9.83 14.55,-16.12 25.37,-18.16 9.46,-1.7 19.27,0 27.53,4.98 7.71,4.64 13.47,11.73 16.63,20.18zm217.72 174.28l0 0c1.03,11.11 -2.62,22.05 -10.9,29.72l-438.44 403.56c-2.99,2.73 -6.92,4.34 -11.03,4.23 -3.26,-0.04 -6.33,-1.33 -8.69,-3.57 -2.38,-2.24 -3.82,-5.22 -4.07,-8.46 -0.36,-4.3 1.28,-8.62 4.23,-11.81l403.56 -438.38c7.5,-8.16 18.24,-11.85 29.23,-10.98 9.61,0.78 18.57,4.98 25.27,11.94 6.26,6.46 9.99,14.79 10.82,23.75zm165.19 224.72l0 0c1.54,-8.82 0.04,-17.94 -4.3,-25.74 -4.65,-8.49 -12.27,-14.84 -21.35,-18.07 -10.33,-3.7 -21.69,-2.94 -31.06,3.02l-503.3 319.04c-3.6,2.31 -6.34,6.01 -7.14,10.27 -0.54,3.24 0.04,6.43 1.71,9.21 1.74,2.77 4.43,4.81 7.58,5.76 3.89,1.1 8.12,0.61 11.72,-1.29l527.94 -276.34c9.98,-5.23 16.33,-14.88 18.19,-25.87zm101.43 259.84l0 0c3.74,-8.17 4.66,-17.28 2.46,-26.04 -2.28,-9.33 -7.97,-17.45 -15.88,-22.96 -9.08,-6.22 -20.19,-8.42 -30.8,-5.1l-568.73 177.92c-4.09,1.24 -7.71,4.15 -9.53,8.1 -1.41,2.94 -1.66,6.25 -0.71,9.31 0.92,3.19 2.99,5.77 5.8,7.5 3.44,2.13 7.67,2.7 11.62,1.79l581.44 -130.25c11.02,-2.49 19.7,-10.16 24.33,-20.27zm30.69 277.19l0 0c5.76,-6.92 8.99,-15.45 9.17,-24.48 0.16,-9.66 -3.21,-18.9 -9.46,-26.28 -7.05,-8.35 -17.38,-13.4 -28.4,-12.95l-595.43 24.67c-4.3,0.17 -8.48,2.04 -11.3,5.36 -2.06,2.48 -3.19,5.63 -3.07,8.81 0.09,3.28 1.38,6.4 3.6,8.72 2.87,2.98 6.76,4.64 10.77,4.8l595.43 24.66c11.19,0.47 21.65,-4.76 28.69,-13.31zm-42.04 275.76l0 0c7.29,-5.22 12.68,-12.67 15.13,-21.32 2.7,-9.27 1.83,-19.14 -2.31,-27.85 -4.69,-9.95 -13.27,-17.42 -24.1,-19.81l-581.48 -130.25c-4.2,-1.01 -8.75,-0.26 -12.31,2.15 -2.69,1.91 -4.52,4.63 -5.27,7.78 -0.73,3.16 -0.28,6.48 1.25,9.38 1.95,3.58 5.31,6.14 9.21,7.39l568.66 177.92c10.78,3.3 22.1,0.99 31.22,-5.4zm-112.06 255.36l0 0c-10.45,3.9 -21.97,3.23 -31.52,-2.82l-503.25 -319.01c-3.43,-2.17 -6.01,-5.56 -6.96,-9.56 -0.79,-3.14 -0.33,-6.46 1.21,-9.37 1.56,-2.82 4.01,-4.97 7.07,-6.03 4.12,-1.51 8.67,-1.01 12.48,0.99l527.93 276.33c9.87,5.14 16.17,14.6 18.16,25.37 1.73,9.44 0,19.32 -4.93,27.54 -4.65,7.71 -11.74,13.51 -20.2,16.58zm-174.31 217.8l0 0c-11.07,1.01 -22.06,-2.65 -29.68,-10.94l-403.55 -438.44c-2.74,-2.97 -4.35,-6.94 -4.28,-11.01 0.08,-3.23 1.36,-6.29 3.6,-8.72 2.24,-2.29 5.18,-3.8 8.45,-4.05 4.32,-0.33 8.64,1.33 11.78,4.24l438.42 403.51c8.17,7.56 11.86,18.32 10.98,29.27 -0.78,9.62 -4.97,18.58 -11.93,25.29 -6.46,6.23 -14.85,10.03 -23.8,10.86zm-224.69 165.16l0 0c8.79,1.58 17.96,0.09 25.74,-4.3 8.46,-4.65 14.85,-12.28 18.09,-21.32 3.69,-10.36 2.9,-21.72 -3.03,-31.1l-319.04 -503.26c-2.32,-3.64 -6.04,-6.38 -10.32,-7.11 -3.19,-0.59 -6.43,0 -9.16,1.65 -2.81,1.73 -4.84,4.46 -5.76,7.62 -1.11,3.9 -0.61,8.04 1.28,11.7l276.35 527.97c5.22,9.95 14.88,16.34 25.86,18.15zm-259.83 101.5l0 0c8.17,3.73 17.28,4.65 26.03,2.39 9.33,-2.31 17.46,-7.95 22.94,-15.92 6.25,-9.02 8.45,-20.15 5.14,-30.74l-177.92 -568.69c-1.29,-4.15 -4.15,-7.69 -8.13,-9.62 -2.91,-1.32 -6.21,-1.57 -9.29,-0.66 -3.19,0.9 -5.8,2.97 -7.5,5.79 -2.1,3.42 -2.7,7.72 -1.78,11.61l130.25 581.46c2.45,11.01 10.16,19.66 20.27,24.38zm-277.21 30.67l0 0c6.89,5.71 15.45,8.94 24.46,9.11 9.66,0.17 18.95,-3.14 26.32,-9.44 8.33,-7.06 13.35,-17.4 12.9,-28.36l-24.63 -595.45c-0.2,-4.31 -2.06,-8.46 -5.39,-11.28 -2.44,-2.07 -5.59,-3.23 -8.83,-3.15 -3.23,0.17 -6.33,1.4 -8.7,3.64 -2.99,2.82 -4.6,6.81 -4.77,10.79l-24.66 595.45c-0.46,11.2 4.77,21.56 13.3,28.69zm-275.76 -42.11l0 0c5.23,7.37 12.65,12.69 21.26,15.17 9.32,2.73 19.17,1.81 27.86,-2.33 9.96,-4.65 17.47,-13.25 19.86,-24.12l130.31 -581.45c0.9,-4.22 0.19,-8.79 -2.25,-12.26 -1.86,-2.75 -4.6,-4.56 -7.75,-5.32 -3.19,-0.73 -6.47,-0.31 -9.37,1.25 -3.57,2 -6.19,5.3 -7.39,9.21l-177.88 568.67c-3.4,10.77 -1.02,22.05 5.34,31.18zm-255.41 -112.03l0 0c-3.89,-10.44 -3.19,-21.97 2.88,-31.49l318.99 -503.27c2.19,-3.47 5.59,-5.96 9.53,-6.97 3.2,-0.74 6.52,-0.33 9.41,1.24 2.87,1.49 4.98,3.99 6.06,7.05 1.48,4.06 0.99,8.72 -1,12.52l-276.33 527.88c-5.15,9.88 -14.61,16.17 -25.43,18.18 -9.4,1.72 -19.26,0 -27.48,-4.98 -7.75,-4.65 -13.51,-11.71 -16.63,-20.16zm-217.75 -174.27l0 0c-1.04,-11.11 2.62,-22.07 10.95,-29.68l438.41 -403.61c2.95,-2.74 6.94,-4.32 10.99,-4.21 3.28,0.06 6.34,1.3 8.75,3.54 2.36,2.24 3.77,5.23 4.02,8.46 0.38,4.32 -1.25,8.62 -4.19,11.77l-403.56 438.42c-7.49,8.21 -18.27,11.85 -29.22,11.03 -9.62,-0.82 -18.62,-4.97 -25.29,-11.95 -6.26,-6.46 -10.04,-14.85 -10.87,-23.79zm-165.19 -224.67l0 0c-1.49,8.77 0,17.91 4.31,25.69 4.68,8.45 12.26,14.84 21.38,18.07 10.33,3.73 21.64,2.92 31.06,-2.99l503.26 -319.12c3.65,-2.31 6.39,-5.96 7.14,-10.27 0.53,-3.15 0,-6.38 -1.7,-9.2 -1.75,-2.74 -4.4,-4.79 -7.55,-5.71 -3.93,-1.18 -8.12,-0.59 -11.73,1.23l-527.92 276.42c-9.99,5.22 -16.33,14.84 -18.24,25.89zm-101.39 -259.85l0 0c-3.78,8.12 -4.66,17.24 -2.5,25.94 2.32,9.38 7.97,17.49 15.92,22.98 9.04,6.22 20.14,8.46 30.77,5.14l568.71 -177.92c4.15,-1.23 7.72,-4.15 9.58,-8.13 1.38,-2.91 1.63,-6.21 0.71,-9.29 -0.96,-3.16 -2.98,-5.78 -5.81,-7.54 -3.44,-2.07 -7.7,-2.65 -11.65,-1.75l-581.44 130.26c-11.03,2.48 -19.65,10.12 -24.29,20.32zm-30.73 -277.29l0 0c-5.76,6.98 -8.95,15.5 -9.16,24.51 -0.16,9.65 3.23,18.94 9.49,26.3 7.05,8.35 17.37,13.41 28.41,12.96l595.36 -24.68c4.32,-0.17 8.5,-2.06 11.32,-5.39 2.07,-2.48 3.19,-5.55 3.1,-8.78 -0.07,-3.28 -1.41,-6.38 -3.65,-8.75 -2.82,-2.94 -6.71,-4.6 -10.78,-4.76l-595.36 -24.67c-11.2,-0.46 -21.65,4.78 -28.74,13.26zm42.08 -275.67l0 0c9.12,-6.42 20.44,-8.74 31.18,-5.4l568.72 177.89c3.85,1.2 7.26,3.81 9.16,7.38 1.57,2.91 2.04,6.22 1.28,9.38 -0.75,3.18 -2.6,5.87 -5.26,7.7 -3.56,2.49 -8.17,3.24 -12.3,2.29l-581.5 -130.26c-10.86,-2.44 -19.39,-9.91 -24.09,-19.85 -4.18,-8.75 -5.01,-18.58 -2.31,-27.91 2.45,-8.62 7.79,-16.04 15.13,-21.22z"/>
     <path class="fil2" d="M2221.24 481.96c-8.72,-9.5 -20.23,-15.76 -32.97,-17.79 -13.63,-2.1 -27.42,0.88 -39.09,8.29 -13.21,8.42 -22.35,21.85 -23.84,37.64l-83.4 868.81c-0.58,5.94 1.21,12.02 5.22,16.5 2.95,3.32 6.93,5.34 11.32,5.89 4.44,0.46 8.86,-0.79 12.47,-3.35 4.56,-3.27 7.55,-8.38 8.55,-13.86l154.91 -858.93c2.85,-15.85 -2.46,-31.47 -13.18,-43.19zm-408.09 -10.71l0 0c-10.82,-6.88 -23.71,-9.98 -36.44,-8.62 -13.77,1.5 -26.32,7.92 -35.64,18.12 -10.57,11.56 -15.88,26.9 -13.23,42.53l144.22 860.77c0.99,5.89 4.31,11.31 9.37,14.59 3.7,2.41 8.04,3.37 12.44,2.7 4.4,-0.67 8.29,-2.9 11.11,-6.39 3.6,-4.35 5.19,-10.03 4.73,-15.63l-72.63 -869.76c-1.34,-16.03 -10.53,-29.77 -23.92,-38.31zm-397.01 95.3l0 0c15.17,4.78 27.56,15.64 33.03,30.78l295.25 821.35c1.92,5.25 1.88,11.19 -0.49,16.33 -1.82,4.05 -5.01,7.25 -9.13,9.07 -4.01,1.75 -8.5,1.96 -12.68,0.58 -5.71,-1.86 -10.32,-6.25 -12.76,-11.69l-362.16 -794.12c-6.58,-14.38 -5.43,-30.62 1.78,-44.48 6.39,-12.31 16.88,-21.76 29.78,-26.73 11.94,-4.6 25.19,-4.93 37.39,-1.09zm-358.8 194.78l0 0c-12.8,-0.55 -25.48,3.22 -35.86,10.76 -11.19,8.14 -18.82,19.98 -21.81,33.51 -3.34,15.24 -0.29,31.26 9.78,43.43l555.34 673.32c3.8,4.6 9.37,7.67 15.33,7.96 4.44,0.24 8.72,-1.07 12.19,-3.85 3.49,-2.82 5.72,-6.71 6.47,-11.12 0.92,-5.59 -0.57,-11.27 -3.81,-15.88l-497.75 -716.92c-9.16,-13.23 -24,-20.51 -39.88,-21.21zm-296.15 281.01l0 0c-12.56,2.77 -23.76,9.62 -31.83,19.65 -8.68,10.69 -13.02,24.29 -12.45,38.01 0.71,15.68 7.8,30.22 20.73,39.46l710.67 506.62c4.84,3.43 11.06,4.97 16.91,3.73 4.35,-0.92 8.07,-3.31 10.73,-6.88 2.6,-3.6 3.78,-8.01 3.37,-12.44 -0.55,-5.59 -3.48,-10.7 -7.76,-14.3l-666.39 -563.71c-12.18,-10.31 -28.56,-13.59 -43.98,-10.15zm-213.33 348.09l0 0c-11.45,5.93 -20.48,15.43 -25.66,27.24 -5.64,12.65 -6.33,26.74 -2.16,39.92 4.73,14.92 15.29,27.2 30.17,32.76l817.62 305.43c5.59,2.07 11.94,1.94 17.28,-0.8 3.94,-2.02 6.97,-5.29 8.58,-9.45 1.61,-4.15 1.61,-8.67 0,-12.85 -1.99,-5.26 -6.08,-9.44 -11.15,-11.86l-789.59 -371.97c-14.47,-6.83 -31.06,-5.77 -45.11,1.56zm-115.99 391.43l0 0c11.73,-10.74 27.36,-16.05 43.19,-13.18l858.93 154.95c5.53,0.99 10.57,3.98 13.9,8.57 2.57,3.62 3.77,8.01 3.28,12.44 -0.47,4.35 -2.53,8.33 -5.81,11.28 -4.47,4.05 -10.56,5.83 -16.53,5.25l-868.78 -83.4c-15.84,-1.53 -29.23,-10.62 -37.68,-23.84 -7.41,-11.65 -10.4,-25.49 -8.24,-39.14 1.95,-12.72 8.24,-24.24 17.74,-32.94zm-10.7 408.15l0 0c-6.83,10.77 -9.98,23.64 -8.63,36.4 1.5,13.76 7.92,26.26 18.12,35.66 11.56,10.6 26.9,15.9 42.51,13.25l860.75 -144.25c5.93,-1 11.37,-4.31 14.64,-9.37 2.41,-3.74 3.35,-8.04 2.7,-12.44 -0.68,-4.4 -2.95,-8.3 -6.44,-11.21 -4.34,-3.55 -9.98,-5.04 -15.58,-4.64l-869.76 72.62c-16.04,1.34 -29.73,10.55 -38.31,23.97zm95.27 396.98l0 0c4.8,-15.18 15.66,-27.61 30.81,-32.99l821.34 -295.35c5.26,-1.9 11.15,-1.8 16.28,0.51 4.1,1.83 7.3,5.06 9.08,9.13 1.78,4.05 1.99,8.53 0.61,12.68 -1.91,5.73 -6.25,10.38 -11.68,12.86l-794.12 362.05c-14.38,6.67 -30.59,5.49 -44.48,-1.73 -12.27,-6.39 -21.81,-16.83 -26.79,-29.75 -4.59,-11.93 -4.93,-25.21 -1.07,-37.39zm194.82 358.73l0 0c-0.56,12.85 3.16,25.54 10.76,35.9 8.12,11.2 19.97,18.82 33.48,21.83 15.25,3.4 31.27,0.24 43.44,-9.79l673.31 -555.35c4.59,-3.8 7.68,-9.36 8,-15.33 0.2,-4.41 -1.11,-8.69 -3.9,-12.19 -2.82,-3.49 -6.71,-5.71 -11.15,-6.46 -5.56,-0.92 -11.23,0.58 -15.84,3.81l-716.92 497.71c-13.19,9.2 -20.52,23.97 -21.2,39.87zm280.99 296.17l0 0c2.77,12.6 9.62,23.8 19.65,31.92 10.7,8.61 24.25,13.01 38.01,12.34 15.68,-0.66 30.28,-7.71 39.46,-20.65l506.63 -710.69c3.48,-4.89 4.97,-11.03 3.73,-17 -0.92,-4.22 -3.32,-8.04 -6.89,-10.61 -3.6,-2.65 -8,-3.8 -12.44,-3.42 -5.64,0.59 -10.74,3.51 -14.34,7.73l-563.66 666.41c-10.31,12.21 -13.55,28.53 -10.16,43.97zm348.1 213.32l0 0c5.92,11.45 15.42,20.49 27.19,25.7 12.64,5.64 26.74,6.39 39.96,2.15 14.97,-4.72 27.2,-15.34 32.76,-30.16l305.39 -817.66c2.1,-5.54 1.99,-11.85 -0.75,-17.24 -2.03,-3.98 -5.34,-6.97 -9.45,-8.63 -4.15,-1.57 -8.67,-1.57 -12.86,0 -5.29,2 -9.44,6.12 -11.81,11.2l-372.01 789.54c-6.83,14.5 -5.76,31.09 1.57,45.1zm391.42 116.01l0 0c-10.74,-11.71 -16.04,-27.28 -13.18,-43.12l154.95 -858.94c0.95,-5.56 3.94,-10.62 8.54,-13.94 3.6,-2.56 8.04,-3.74 12.43,-3.3 4.4,0.48 8.42,2.55 11.32,5.88 4.06,4.48 5.79,10.52 5.23,16.48l-83.38 868.83c-1.54,15.74 -10.61,29.18 -23.83,37.63 -11.66,7.4 -25.49,10.37 -39.14,8.22 -12.73,-1.93 -24.24,-8.22 -32.95,-17.73zm408.16 10.67l0 0c10.78,6.9 23.63,10.05 36.35,8.63 13.77,-1.4 26.37,-7.88 35.69,-18.07 10.62,-11.6 15.89,-26.94 13.27,-42.53l-144.3 -860.76c-1,-5.9 -4.23,-11.37 -9.31,-14.62 -3.7,-2.39 -8.05,-3.4 -12.45,-2.72 -4.44,0.74 -8.33,2.98 -11.16,6.47 -3.59,4.3 -5.14,9.94 -4.67,15.58l72.62 869.81c1.38,16 10.53,29.69 23.96,38.21zm396.98 -95.24l0 0c-15.18,-4.83 -27.57,-15.67 -33.05,-30.78l-295.29 -821.37c-1.91,-5.23 -1.81,-11.11 0.47,-16.26 1.85,-4.05 5.05,-7.28 9.16,-9.11 4.06,-1.76 8.54,-1.98 12.72,-0.58 5.72,1.91 10.27,6.22 12.77,11.69l362.14 794.12c6.55,14.31 5.48,30.58 -1.77,44.44 -6.39,12.26 -16.88,21.78 -29.77,26.78 -11.98,4.63 -25.2,4.89 -37.39,1.07zm358.75 -194.76l0 0c12.85,0.49 25.5,-3.23 35.86,-10.78 11.23,-8.13 18.87,-19.98 21.85,-33.49 3.39,-15.25 0.29,-31.24 -9.79,-43.44l-555.32 -673.31c-3.82,-4.64 -9.37,-7.71 -15.34,-7.96 -4.45,-0.24 -8.71,1.08 -12.19,3.81 -3.48,2.81 -5.73,6.72 -6.47,11.2 -0.92,5.54 0.57,11.18 3.78,15.83l497.78 716.93c9.17,13.18 24,20.48 39.84,21.22zm296.14 -281.07l0 0c12.62,-2.72 23.81,-9.53 31.89,-19.64 8.63,-10.71 13.01,-24.23 12.39,-37.99 -0.66,-15.66 -7.75,-30.27 -20.68,-39.46l-710.7 -506.66c-4.81,-3.38 -11.04,-4.97 -16.91,-3.72 -4.31,0.9 -8.1,3.3 -10.71,6.87 -2.65,3.67 -3.8,8.05 -3.35,12.44 0.53,5.64 3.48,10.79 7.76,14.36l666.39 563.69c12.18,10.28 28.5,13.62 43.92,10.12zm213.38 -348.06l0 0c11.4,-5.98 20.43,-15.42 25.67,-27.19 5.64,-12.69 6.33,-26.79 2.15,-39.95 -4.68,-15.01 -15.34,-27.2 -30.18,-32.74l-817.61 -305.46c-5.59,-2.06 -11.94,-1.99 -17.28,0.75 -3.94,1.98 -6.97,5.32 -8.58,9.45 -1.66,4.23 -1.61,8.71 -0.03,12.94 1.98,5.22 6.13,9.37 11.18,11.77l789.6 372c14.46,6.81 31.05,5.73 45.1,-1.56zm115.96 -391.42l0 0c-11.74,10.7 -27.33,16 -43.16,13.11l-858.94 -154.87c-5.51,-0.99 -10.62,-4 -13.85,-8.55 -2.62,-3.56 -3.81,-8.04 -3.37,-12.43 0.54,-4.39 2.57,-8.39 5.86,-11.36 4.51,-4.06 10.56,-5.82 16.54,-5.22l868.81 83.39c15.75,1.49 29.18,10.62 37.64,23.81 7.41,11.7 10.36,25.54 8.24,39.12 -1.98,12.77 -8.24,24.31 -17.77,33.01zm10.69 -408.15l0 0c6.88,-10.78 10.03,-23.68 8.63,-36.4 -1.46,-13.77 -7.88,-26.33 -18.08,-35.69 -11.57,-10.57 -26.95,-15.84 -42.54,-13.23l-860.75 144.3c-5.9,0.97 -11.34,4.23 -14.61,9.29 -2.41,3.69 -3.4,8.07 -2.7,12.48 0.67,4.43 2.95,8.33 6.43,11.15 4.34,3.56 9.99,5.15 15.6,4.68l869.76 -72.67c16.03,-1.32 29.71,-10.49 38.26,-23.91zm-95.27 -396.98l0 0c-4.8,15.14 -15.67,27.57 -30.8,33.01l-821.3 295.28c-5.27,1.91 -11.2,1.82 -16.3,-0.45 -4.1,-1.82 -7.28,-5.02 -9.12,-9.13 -1.77,-4.06 -1.95,-8.54 -0.58,-12.72 1.82,-5.77 6.27,-10.29 11.69,-12.77l794.08 -362.19c14.39,-6.54 30.63,-5.43 44.48,1.79 12.3,6.38 21.75,16.87 26.78,29.8 4.65,11.99 4.94,25.17 1.08,37.39zm-194.79 -358.8l0 0c0.57,-12.8 -3.16,-25.45 -10.74,-35.85 -8.16,-11.16 -19.98,-18.87 -33.51,-21.84 -15.24,-3.38 -31.29,-0.26 -43.48,9.77l-673.26 555.37c-4.65,3.81 -7.71,9.32 -8,15.34 -0.25,4.43 1.13,8.71 3.85,12.19 2.82,3.48 6.79,5.71 11.19,6.47 5.55,0.86 11.24,-0.58 15.84,-3.77l716.91 -497.83c13.24,-9.17 20.49,-23.96 21.2,-39.85zm-281.02 -296.18l0 0c-2.78,-12.56 -9.63,-23.71 -19.65,-31.79 -10.7,-8.68 -24.3,-13.03 -38.02,-12.46 -15.63,0.71 -30.27,7.8 -39.41,20.7l-506.62 710.7c-3.45,4.85 -5.02,11.07 -3.78,16.92 0.92,4.3 3.32,8.07 6.93,10.69 3.6,2.7 8,3.85 12.44,3.41 5.64,-0.59 10.69,-3.5 14.29,-7.76l563.66 -666.39c10.32,-12.22 13.6,-28.56 10.16,-44.02zm-348.06 -213.33l0 0c7.3,14.1 8.38,30.67 1.54,45.13l-371.98 789.55c-2.36,5.06 -6.51,9.25 -11.77,11.24 -4.19,1.53 -8.74,1.57 -12.94,-0.05 -4.14,-1.61 -7.47,-4.65 -9.46,-8.57 -2.73,-5.34 -2.81,-11.69 -0.73,-17.29l305.43 -817.61c5.51,-14.84 17.77,-25.48 32.7,-30.22 13.22,-4.15 27.32,-3.43 39.96,2.17 11.77,5.22 21.26,14.25 27.23,25.66z"/>
     <path class="fil3" d="M2395.27 577.51c-7.22,-10.16 -17.47,-17.49 -29.4,-20.94 -12.81,-3.69 -26.41,-2.48 -38.42,3.24 -13.69,6.51 -24.01,18.28 -27.32,33.2l-70.48 315.34c14.76,-1.61 29.81,-0.36 44.36,3.82 11.76,3.4 22.84,8.62 32.83,15.37l95.84 -307.13c4.65,-14.79 1.46,-30.39 -7.41,-42.9zm-389.31 -58.99l0 0c-9.53,-7.88 -21.47,-12.4 -33.83,-12.6 -13.3,-0.27 -26.11,4.39 -36.27,13.04 -11.53,9.79 -18.41,23.89 -17.78,39.13l13.54 322.85c13.81,-5.38 28.69,-8.07 43.79,-7.79 12.26,0.21 24.3,2.42 35.73,6.34l13.13 -321.48c0.64,-15.46 -6.49,-29.72 -18.32,-39.51zm-391.33 43.78l0 0c-11.19,-5.14 -23.92,-6.43 -35.93,-3.45 -12.95,3.24 -24.1,11.07 -31.64,22.01 -8.57,12.44 -11.61,27.86 -7.04,42.41l96.63 308.34c11.98,-8.79 25.62,-15.22 40.31,-18.87 11.85,-2.94 24.07,-3.97 36.13,-3.05l-70.51 -313.98c-3.4,-15.18 -14.01,-27.05 -27.94,-33.42zm-366.66 143.55l0 0c-12.15,-2.08 -24.75,0 -35.61,6.01 -11.65,6.43 -20.4,16.87 -24.88,29.43 -5.05,14.21 -3.97,29.89 4.19,42.78l173.12 272.81c9.33,-11.55 20.85,-21.32 34.07,-28.64 10.7,-5.93 22.26,-10.03 34.12,-12.31l-149.4 -285.05c-7.17,-13.76 -20.47,-22.47 -35.61,-25.04zm-317.01 233.56l0 0c15.18,-1.41 30.47,3.62 40.92,14.96l218 236.67c-10.87,5.22 -20.89,12.23 -29.72,20.72 -10.89,10.49 -19.48,22.89 -25.49,36.47l-237.83 -218.71c-11.3,-10.38 -16.34,-25.12 -15.13,-40.26 1.08,-13.22 6.88,-25.65 16.41,-34.85 8.96,-8.64 20.52,-13.86 32.84,-15.01zm-245.74 307.63l0 0c-11.66,4.34 -21.44,12.35 -27.86,23.01 -6.84,11.43 -9.2,24.82 -6.8,37.96 2.74,14.89 11.4,27.86 24.99,34.95l286.38 149.72c2.27,-14.71 7.37,-28.97 15.17,-41.86 6.29,-10.53 14.22,-19.87 23.34,-27.73l-271.85 -172.16c-13.08,-8.24 -29.04,-9.24 -43.37,-3.9zm-157.79 360.82l0 0c-10.12,7.18 -17.48,17.46 -20.92,29.39 -3.66,12.82 -2.49,26.36 3.26,38.43 6.51,13.65 18.19,23.97 33.17,27.32l315.3 70.48c-1.58,-14.75 -0.29,-29.82 3.85,-44.35 3.41,-11.78 8.63,-22.85 15.38,-32.84l-307.13 -95.92c-14.8,-4.6 -30.39,-1.42 -42.91,7.49zm-58.99 389.26l0 0c-7.88,9.53 -12.39,21.48 -12.6,33.88 -0.25,13.3 4.43,26.11 13.05,36.27 9.78,11.48 23.84,18.44 39.09,17.79l322.85 -13.54c-5.34,-13.84 -8.04,-28.71 -7.75,-43.83 0.21,-12.24 2.41,-24.32 6.39,-35.69l-321.53 -13.15c-15.5,-0.63 -29.72,6.47 -39.51,18.27zm43.73 391.39l0 0c-5.14,11.18 -6.42,23.96 -3.4,35.89 3.24,12.93 11.07,24.13 22.01,31.66 12.44,8.55 27.83,11.62 42.41,7.06l308.3 -96.59c-8.74,-12.02 -15.21,-25.71 -18.82,-40.31 -2.94,-11.95 -3.95,-24.12 -3.12,-36.14l-313.93 70.47c-15.15,3.4 -27.04,14.02 -33.47,27.95zm143.62 366.62l0 0c-2.08,12.17 -0.05,24.79 6,35.63 6.47,11.61 16.88,20.41 29.44,24.89 14.22,5.06 29.89,3.99 42.78,-4.24l272.81 -173.1c-11.62,-9.28 -21.35,-20.81 -28.65,-34.1 -5.93,-10.68 -10.03,-22.21 -12.3,-34.05l-285.05 149.4c-13.73,7.14 -22.5,20.39 -25.04,35.57zm233.56 317.03l0 0c-1.46,-15.16 3.64,-30.49 14.96,-40.86l236.66 -218.06c5.26,10.86 12.19,20.88 20.72,29.67 10.49,10.95 22.89,19.59 36.49,25.56l-218.71 237.87c-10.37,11.28 -25.17,16.24 -40.26,15.09 -13.19,-1.08 -25.66,-6.89 -34.87,-16.43 -8.66,-8.94 -13.85,-20.47 -14.99,-32.84zm307.66 245.77l0 0c4.28,11.62 12.32,21.47 22.97,27.85 11.44,6.78 24.83,9.21 37.92,6.78 14.93,-2.71 27.9,-11.43 35.01,-24.94l149.69 -286.46c-14.69,-2.24 -28.95,-7.38 -41.87,-15.09 -10.49,-6.38 -19.83,-14.26 -27.69,-23.39l-172.16 271.89c-8.25,13 -9.21,29 -3.87,43.36zm360.76 157.78l0 0c7.2,10.11 17.44,17.48 29.39,20.88 12.84,3.73 26.4,2.48 38.46,-3.23 13.68,-6.48 23.95,-18.24 27.28,-33.15l70.51 -315.31c-14.75,1.57 -29.85,0.32 -44.35,-3.92 -11.81,-3.4 -22.84,-8.53 -32.84,-15.33l-95.92 307.09c-4.65,14.86 -1.41,30.44 7.47,42.97zm389.33 58.94l0 0c9.49,7.89 21.43,12.44 33.79,12.68 13.39,0.17 26.16,-4.48 36.32,-13.09 11.52,-9.8 18.44,-23.9 17.77,-39.13l-13.54 -322.86c-13.86,5.38 -28.7,8.05 -43.82,7.79 -12.28,-0.25 -24.3,-2.42 -35.69,-6.37l-13.15 321.51c-0.63,15.49 6.51,29.68 18.33,39.46zm391.32 -43.78l0 0c11.2,5.23 23.93,6.46 35.91,3.48 12.97,-3.23 24.12,-11.02 31.7,-22.06 8.54,-12.43 11.57,-27.78 7,-42.37l-96.62 -308.34c-11.98,8.79 -25.66,15.27 -40.3,18.83 -11.89,2.98 -24.08,3.97 -36.15,3.15l70.52 313.9c3.4,15.18 14.01,27.04 27.93,33.41zm366.63 -143.51l0 0c12.23,2.07 24.75,0 35.62,-5.97 11.69,-6.46 20.43,-16.92 24.9,-29.52 5.06,-14.18 3.99,-29.84 -4.18,-42.69l-173.15 -272.86c-9.3,11.52 -20.81,21.3 -34.09,28.6 -10.68,5.98 -22.22,10.02 -34.08,12.36l149.42 285.05c7.18,13.67 20.48,22.46 35.56,25.04zm317.01 -233.58l0 0c-15.18,1.43 -30.42,-3.62 -40.88,-14.98l-218.05 -236.62c10.9,-5.23 20.94,-12.21 29.77,-20.74 10.86,-10.51 19.48,-22.87 25.49,-36.47l237.82 218.71c11.28,10.37 16.34,25.13 15.15,40.21 -1.08,13.2 -6.89,25.7 -16.42,34.91 -8.97,8.62 -20.51,13.85 -32.88,14.98zm245.78 -307.66l0 0c11.66,-4.29 21.43,-12.26 27.83,-22.96 6.88,-11.44 9.25,-24.87 6.83,-37.96 -2.74,-14.94 -11.44,-27.86 -24.99,-35l-286.37 -149.66c-2.32,14.7 -7.42,28.94 -15.17,41.88 -6.3,10.45 -14.22,19.82 -23.36,27.7l271.88 172.11c13.05,8.27 29.02,9.19 43.35,3.89zm157.78 -360.81l0 0c10.08,-7.14 17.5,-17.43 20.9,-29.35 3.69,-12.77 2.49,-26.38 -3.23,-38.47 -6.47,-13.6 -18.24,-23.97 -33.17,-27.28l-315.34 -70.47c1.63,14.76 0.33,29.85 -3.81,44.35 -3.4,11.76 -8.62,22.8 -15.43,32.82l307.14 95.94c14.86,4.55 30.43,1.4 42.94,-7.54zm58.96 -389.3l0 0c7.88,-9.51 12.39,-21.43 12.64,-33.79 0.21,-13.35 -4.44,-26.16 -13.1,-36.31 -9.77,-11.49 -23.87,-18.38 -39.09,-17.75l-322.85 13.55c5.4,13.8 8.04,28.68 7.79,43.79 -0.24,12.26 -2.4,24.32 -6.39,35.67l321.53 13.18c15.5,0.57 29.68,-6.53 39.46,-18.35zm-43.73 -391.3l0 0c5.13,-11.22 6.42,-23.91 3.4,-35.89 -3.21,-12.98 -11.03,-24.18 -22.02,-31.72 -12.39,-8.52 -27.81,-11.6 -42.36,-7l-308.34 96.59c8.74,12.03 15.21,25.67 18.86,40.35 2.95,11.89 3.94,24.04 3.07,36.1l313.97 -70.51c15.15,-3.37 26.99,-13.98 33.43,-27.91zm-143.61 -366.66l0 0c2.06,-12.18 0.04,-24.74 -5.98,-35.57 -6.46,-11.69 -16.86,-20.43 -29.46,-24.91 -14.22,-5.05 -29.89,-3.98 -42.75,4.15l-272.86 173.15c11.62,9.32 21.35,20.86 28.69,34.08 5.93,10.7 10.02,22.21 12.31,34.12l285.04 -149.41c13.73,-7.17 22.47,-20.47 25,-35.61zm-233.56 -317l0 0c1.45,15.18 -3.66,30.42 -14.96,40.87l-236.63 218.05c-5.27,-10.85 -12.22,-20.89 -20.77,-29.72 -10.48,-10.86 -22.88,-19.47 -36.47,-25.49l218.71 -237.87c10.37,-11.22 25.17,-16.28 40.23,-15.09 13.25,1.09 25.73,6.89 34.94,16.42 8.62,8.95 13.84,20.44 14.96,32.84zm-307.63 -245.76l0 0c-4.37,-11.64 -12.32,-21.42 -23.01,-27.81 -11.4,-6.93 -24.84,-9.24 -37.97,-6.83 -14.85,2.7 -27.81,11.39 -34.94,24.95l-149.69 286.41c14.71,2.28 28.97,7.38 41.87,15.13 10.48,6.34 19.82,14.22 27.69,23.39l172.16 -271.87c8.25,-13.06 9.19,-29.06 3.9,-43.37z"/>
    </g>
    <g>
     <path class="fil3" d="M4604.8 2180.23c-68.15,0 -130.86,-12.85 -188.24,-38.55 -57.37,-25.7 -106.97,-60.93 -148.78,-105.75 -41.84,-44.85 -74.42,-96.51 -97.72,-155.09 -23.28,-58.58 -34.94,-121.29 -34.94,-188.24 0,-65.71 11.66,-127.56 34.94,-185.52 23.31,-57.95 55.88,-108.74 97.72,-152.39 41.82,-43.61 91.12,-78.26 147.87,-103.96 56.79,-25.7 119.22,-38.55 187.33,-38.55 68.16,0 130.59,12.85 187.34,38.55 56.74,25.7 105.45,60.66 146.09,104.84 40.67,44.24 72.32,95.05 95,152.4 22.71,57.36 34.08,118.34 34.08,182.84 0,9.57 -0.29,19.11 -0.92,28.69 -0.58,9.57 -1.49,16.13 -2.69,19.73l-797.72 0c3.62,50.16 15.26,96.51 35,138.91 19.68,42.45 44.81,79.19 75.27,110.28 30.47,31.05 65.72,55.25 105.76,72.58 40.05,17.32 82.78,26.03 128.17,26.03 31.06,0 61.57,-4.22 91.46,-12.6 29.84,-8.38 57.33,-19.69 82.41,-34.04 25.13,-14.34 47.51,-31.99 67.24,-52.89 19.73,-20.93 34.95,-43.94 45.73,-69.02l105.75 28.68c-14.34,34.66 -34.62,66.04 -60.94,94.11 -26.29,28.1 -56.79,52.56 -91.4,73.53 -34.65,20.9 -72.93,36.99 -114.75,48.34 -41.83,11.35 -84.86,17.08 -129.05,17.08zm344.2 -534.22l0 0c-3.62,-50.2 -15.29,-95.93 -35,-137.13 -19.73,-41.2 -44.81,-76.78 -75.27,-106.67 -30.48,-29.84 -66.04,-53.19 -106.67,-69.89 -40.65,-16.75 -83.65,-25.12 -129.08,-25.12 -45.39,0 -88.42,8.37 -129.04,25.12 -40.64,16.7 -76.2,40.05 -106.67,69.89 -30.46,29.89 -54.97,65.75 -73.49,107.54 -18.53,41.83 -29.61,87.26 -33.17,136.26l688.4 0zm324.43 804.93l0 0c6.01,1.16 11.98,2.06 17.95,2.65 5.97,0.58 11.94,0.92 17.91,0.92 11.98,0 24.79,-1.25 38.55,-3.56 13.76,-2.41 23.59,-4.82 29.6,-7.23 5.96,-2.39 12.22,-7.45 18.82,-15.25 6.55,-7.71 14.93,-21.47 25.09,-41.19 10.16,-19.73 23.01,-47.2 38.56,-82.42 15.53,-35.32 35.22,-82.84 59.16,-142.51l-406.96 -933.98 127.3 0 345.94 821.03 319.11 -821.03 116.53 0 -485.81 1204.67c-17.9,44.21 -42.15,77.03 -72.58,98.58 -30.52,21.47 -73.21,32.27 -128.18,32.27 -22.72,0 -43.03,-1.83 -60.98,-5.4l0 -107.53zm1326.55 -270.71l0 0c-68.15,0 -130.86,-12.85 -188.21,-38.55 -57.41,-25.7 -106.99,-60.93 -148.82,-105.75 -41.83,-44.85 -74.37,-96.51 -97.67,-155.09 -23.34,-58.58 -34.97,-121.29 -34.97,-188.24 0,-65.71 11.64,-127.56 34.97,-185.52 23.31,-57.95 55.84,-108.74 97.67,-152.39 41.83,-43.61 91.12,-78.26 147.87,-103.96 56.79,-25.7 119.23,-38.55 187.33,-38.55 68.15,0 130.57,12.85 187.38,38.55 56.7,25.7 105.45,60.66 146.08,104.84 40.62,44.24 72.3,95.05 95,152.4 22.73,57.36 34.01,118.34 34.01,182.84 0,9.57 -0.24,19.11 -0.83,28.69 -0.58,9.57 -1.5,16.13 -2.75,19.73l-797.66 0c3.57,50.16 15.21,96.51 34.95,138.91 19.69,42.45 44.81,79.19 75.28,110.28 30.47,31.05 65.7,55.25 105.76,72.58 40.08,17.32 82.78,26.03 128.18,26.03 31.09,0 61.55,-4.22 91.44,-12.6 29.84,-8.38 57.37,-19.69 82.41,-34.04 25.12,-14.34 47.5,-31.99 67.24,-52.89 19.73,-20.93 34.98,-43.94 45.77,-69.02l105.73 28.68c-14.36,34.66 -34.67,66.04 -60.96,94.11 -26.29,28.1 -56.78,52.56 -91.43,73.53 -34.67,20.9 -72.89,36.99 -114.67,48.34 -41.88,11.35 -84.9,17.08 -129.09,17.08zm344.16 -534.22l0 0c-3.56,-50.2 -15.25,-95.93 -34.91,-137.13 -19.73,-41.2 -44.85,-76.78 -75.26,-106.67 -30.53,-29.84 -66.1,-53.19 -106.7,-69.89 -40.64,-16.75 -83.66,-25.12 -129.1,-25.12 -45.39,0 -88.38,8.37 -129.04,25.12 -40.63,16.7 -76.19,40.05 -106.66,69.89 -30.47,29.89 -54.97,65.75 -73.49,107.54 -18.5,41.83 -29.58,87.26 -33.17,136.26l688.35 0zm697.36 46.6l0 0c0,-65.71 11.36,-127.84 34.05,-186.44 22.72,-58.52 54.67,-109.64 95.87,-153.24 41.29,-43.62 90.54,-77.98 147.9,-103.07 57.39,-25.12 120.73,-37.67 190.02,-37.67 88.47,0 165.5,20.02 231.25,60.07 65.75,40.04 115.33,94.09 148.83,162.21l-118.31 37.64c-26.29,-47.77 -62.78,-85.12 -109.37,-112.02 -46.59,-26.9 -98.58,-40.35 -155.95,-40.35 -47.82,0 -92.35,9.58 -133.57,28.7 -41.19,19.11 -77.1,45.1 -107.51,77.98 -30.52,32.83 -54.39,71.99 -71.72,117.39 -17.35,45.43 -26.06,95.02 -26.06,148.78 0,52.61 9.04,102.18 26.95,148.83 17.92,46.58 42.38,86.92 73.46,121 31.08,34.04 67.24,60.95 108.47,80.67 41.18,19.69 85.14,29.58 131.74,29.58 29.92,0 59.44,-4.22 88.77,-12.59 29.28,-8.31 56.48,-20.01 81.51,-34.94 25.12,-14.93 46.68,-31.96 64.58,-51.07 17.91,-19.15 30.43,-39.46 37.64,-60.99l118.31 35.87c-13.18,33.45 -32.26,64.25 -57.36,92.32 -25.13,28.1 -54.63,52.56 -88.72,73.53 -34.07,20.9 -71.73,36.99 -112.91,48.34 -41.29,11.35 -84,17.08 -128.19,17.08 -68.16,0 -130.9,-12.85 -188.21,-38.55 -57.37,-25.7 -107.03,-60.93 -148.83,-105.75 -41.85,-44.85 -74.36,-96.51 -97.67,-155.09 -23.35,-58.58 -34.96,-121.29 -34.96,-188.24zm1455.56 487.62l0 0c-68.08,0 -130.84,-12.85 -188.21,-38.55 -57.38,-25.7 -106.95,-60.93 -148.84,-105.75 -41.78,-44.85 -74.36,-96.51 -97.66,-155.09 -23.28,-58.58 -34.9,-121.29 -34.9,-188.24 0,-65.71 11.62,-127.56 34.9,-185.52 23.31,-57.95 55.88,-108.74 97.66,-152.39 41.88,-43.61 91.2,-78.26 147.92,-103.96 56.79,-25.7 119.24,-38.55 187.37,-38.55 68.06,0 130.58,12.85 187.3,38.55 56.78,25.7 105.45,60.66 146.09,104.84 40.69,44.24 72.39,95.05 95,152.4 22.73,57.36 34.07,118.34 34.07,182.84 0,9.57 -0.24,19.11 -0.9,28.69 -0.58,9.57 -1.51,16.13 -2.65,19.73l-797.76 0c3.55,50.16 15.25,96.51 34.98,138.91 19.73,42.45 44.86,79.19 75.29,110.28 30.41,31.05 65.73,55.25 105.77,72.58 40.06,17.32 82.75,26.03 128.2,26.03 31,0 61.51,-4.22 91.36,-12.6 29.92,-8.38 57.38,-19.69 82.49,-34.04 25.11,-14.34 47.52,-31.99 67.24,-52.89 19.73,-20.93 34.89,-43.94 45.68,-69.02l105.8 28.68c-14.35,34.66 -34.66,66.04 -60.94,94.11 -26.29,28.1 -56.79,52.56 -91.46,73.53 -34.64,20.9 -72.88,36.99 -114.75,48.34 -41.78,11.35 -84.81,17.08 -129.07,17.08zm344.24 -534.22l0 0c-3.58,-50.2 -15.27,-95.93 -35.01,-137.13 -19.73,-41.2 -44.77,-76.78 -75.27,-106.67 -30.52,-29.84 -65.99,-53.19 -106.62,-69.89 -40.69,-16.75 -83.75,-25.12 -129.09,-25.12 -45.43,0 -88.45,8.37 -129.09,25.12 -40.64,16.7 -76.2,40.05 -106.62,69.89 -30.5,29.89 -55.04,65.75 -73.54,107.54 -18.49,41.83 -29.59,87.26 -33.17,136.26l688.42 0zm1084.45 516.32l0 0 -121.87 0 0 -521.71c0,-111.1 -16.07,-191.77 -48.42,-241.98 -32.26,-50.2 -82.42,-75.28 -150.58,-75.28 -35.8,0 -71.7,6.55 -107.53,19.7 -35.8,13.13 -69.31,31.66 -100.39,55.58 -31.08,23.88 -58.21,52.27 -81.58,85.15 -23.31,32.84 -40.89,68.4 -52.81,106.63l0 571.9 -121.99 0 0 -933.98 111.19 0 0 211.51c19.06,-33.45 42.72,-64.23 70.8,-92.33 28.12,-28.07 59.45,-52.27 94.11,-72.58 34.66,-20.32 71.39,-35.86 110.27,-46.6 38.8,-10.78 79.17,-16.16 120.98,-16.16 52.63,0 96.48,9.57 131.81,28.68 35.25,19.16 63.59,46.02 85.16,80.68 21.47,34.64 36.96,77.1 46.52,127.3 9.6,50.15 14.33,105.75 14.33,166.68l0 546.8zm697.45 -44.86l0 0c-7.22,3.56 -17.68,8.38 -31.43,14.36 -13.76,5.96 -29.59,11.93 -47.5,17.9 -17.92,5.96 -38.22,11.36 -60.95,16.17 -22.72,4.79 -46.59,7.14 -71.72,7.14 -26.26,0 -51.39,-3.57 -75.29,-10.7 -23.85,-7.22 -44.84,-18.24 -62.74,-33.17 -17.92,-14.99 -32.27,-33.83 -43.05,-56.48 -10.68,-22.73 -16.08,-49.01 -16.08,-78.9l0 -668.63 -129.08 0 0 -96.81 129.08 0 0 -315.51 121.86 0 0 315.51 215.08 0 0 96.81 -215.08 0 0 634.58c2.42,34.66 14.36,60.03 35.83,76.2 21.57,16.13 47.27,24.16 77.12,24.16 34.64,0 65.16,-5.69 91.43,-16.99 26.29,-11.36 43.05,-19.43 50.16,-24.21l32.35 98.58zm552.09 62.76l0 0c-68.16,0 -130.92,-12.85 -188.21,-38.55 -57.36,-25.7 -107.03,-60.93 -148.83,-105.75 -41.87,-44.85 -74.37,-96.51 -97.67,-155.09 -23.37,-58.58 -34.98,-121.29 -34.98,-188.24 0,-65.71 11.62,-127.56 34.98,-185.52 23.31,-57.95 55.8,-108.74 97.67,-152.39 41.8,-43.61 91.12,-78.26 147.91,-103.96 56.73,-25.7 119.22,-38.55 187.29,-38.55 68.16,0 130.58,12.85 187.3,38.55 56.8,25.7 105.55,60.66 146.17,104.84 40.62,44.24 72.3,95.05 95.03,152.4 22.69,57.36 33.97,118.34 33.97,182.84 0,9.57 -0.23,19.11 -0.82,28.69 -0.66,9.57 -1.49,16.13 -2.73,19.73l-797.68 0c3.56,50.16 15.18,96.51 34.91,138.91 19.73,42.45 44.84,79.19 75.28,110.28 30.5,31.05 65.75,55.25 105.8,72.58 40.02,17.32 82.73,26.03 128.17,26.03 31.09,0 61.53,-4.22 91.44,-12.6 29.87,-8.38 57.38,-19.69 82.44,-34.04 25.1,-14.34 47.49,-31.99 67.22,-52.89 19.73,-20.93 34.98,-43.94 45.78,-69.02l105.69 28.68c-14.33,34.66 -34.65,66.04 -60.94,94.11 -26.26,28.1 -56.8,52.56 -91.45,73.53 -34.64,20.9 -72.87,36.99 -114.65,48.34 -41.87,11.35 -84.9,17.08 -129.09,17.08zm344.16 -534.22l0 0c-3.56,-50.2 -15.25,-95.93 -35,-137.13 -19.64,-41.2 -44.77,-76.78 -75.2,-106.67 -30.5,-29.84 -66.08,-53.19 -106.7,-69.89 -40.62,-16.75 -83.65,-25.12 -129.09,-25.12 -45.41,0 -88.39,8.37 -129.08,25.12 -40.62,16.7 -76.11,40.05 -106.61,69.89 -30.53,29.89 -54.98,65.75 -73.55,107.54 -18.48,41.83 -29.52,87.26 -33.15,136.26l688.39 0zm765.5 -310.12l0 0c-82.48,2.36 -154.21,25.13 -215.14,68.16 -60.94,42.99 -103.99,102.13 -129.09,177.41l0 580.87 -121.86 0 0 -933.98 114.74 0 0 224.07c32.23,-65.71 74.7,-120.43 127.25,-164.03 52.57,-43.62 109.29,-65.42 170.32,-65.42 10.76,0 20.89,0 30.4,0 9.54,0 17.35,0.56 23.39,1.77l0 111.14z"/>
     <path class="fil2" d="M6164.63 3140.24c-30.28,0 -58.05,-5.64 -83.28,-17.08 -25.24,-11.45 -47.01,-26.96 -65.33,-46.61 -18.33,-19.74 -32.55,-42.53 -42.65,-68.55 -10.07,-26.05 -15.14,-53.39 -15.14,-82.09 0,-29.25 5.18,-56.88 15.55,-82.92 10.37,-26.03 24.7,-48.91 43.03,-68.55 18.32,-19.66 40.08,-35.34 65.36,-47.03 25.2,-11.67 52.7,-17.49 82.46,-17.49 29.75,0 57.25,5.82 82.48,17.49 25.21,11.69 47.02,27.37 65.33,47.03 18.38,19.64 32.71,42.53 43.05,68.55 10.36,26.04 15.53,53.66 15.53,82.92 0,28.69 -5.18,56.04 -15.53,82.09 -10.33,26.03 -24.67,48.81 -43.05,68.55 -18.32,19.65 -40.12,35.16 -65.33,46.61 -25.23,11.44 -52.73,17.08 -82.48,17.08zm-150.61 -213.58l0 0c0,23.37 3.87,45.01 11.57,65 7.69,19.9 18.32,37.49 31.83,52.57 13.55,15.18 29.52,26.93 47.84,35.48 18.32,8.53 37.85,12.75 58.57,12.75 20.73,0 40.21,-4.39 58.58,-13.18 18.32,-8.7 34.4,-20.72 48.21,-35.81 13.85,-15.18 24.7,-32.84 32.66,-53.07 7.96,-20.14 11.98,-41.94 11.98,-65.34 0,-22.77 -4.02,-44.52 -11.98,-64.91 -7.96,-20.45 -18.82,-38.21 -32.66,-53.4 -13.8,-15.16 -29.77,-27.09 -47.8,-35.88 -18.07,-8.79 -37.46,-13.11 -58.2,-13.11 -20.73,0 -40.26,4.31 -58.58,13.11 -18.32,8.79 -34.28,20.91 -47.83,36.31 -13.51,15.35 -24.3,33.33 -32.26,53.71 -7.97,20.5 -11.94,42.4 -11.94,65.77zm464.63 205.61l0 0 0 -323.51 -57.41 0 0 -43.04 57.41 0 0 -59.77c0,-51 10.86,-91.03 32.67,-119.97 21.75,-28.93 51.77,-43.45 90.02,-43.45 15.97,0 31.64,2.41 47.01,7.23 15.42,4.81 28.69,11.18 39.89,19.15l-16.74 38.96c-7.47,-5.8 -16.6,-10.29 -27.49,-13.52 -10.9,-3.14 -21.68,-4.7 -32.29,-4.7 -25.49,0 -45.03,9.76 -58.58,29.42 -13.55,19.64 -20.32,48.09 -20.32,85.21l0 61.44 114.75 0 0 43.04 -114.75 0 0 323.51 -54.18 0zm511.58 -462.22l0 0 0 462.22 -54.97 0 0 -565.77 43.04 0 374.58 470.92 0 -470.18 54.98 0 0 565.03 -47.85 0 -369.78 -462.22zm941.18 412.81l0 0 0 49.41 -380.13 0 0 -565.77 373.03 0 0 49.41 -317.98 0 0 203.94 277.34 0 0 47.1 -277.34 0 0 215.9 325.08 0zm319.63 -512.36l0 0 53.39 0 79.67 200.79 80.5 -200.79 52.57 0 -98.83 241.41 108.43 255.86 204.79 -501.27 60.54 0 -239.05 565.77 -49.41 0 -118.71 -279.64 -119.57 279.64 -49.41 0 -238.28 -565.77 58.96 0 205.61 501.27 107.62 -255.86 -98.83 -241.41zm764.27 -3.99l0 0 185.63 304.36 186.53 -304.36 60.52 0 -219.94 355.43 0 210.34 -54.98 0 0 -211.99 -218.38 -353.78 60.61 0zm706.86 569.75l0 0c-39.28,0 -75.37,-8.03 -108.03,-24.27 -32.66,-16.18 -60.68,-37.72 -84.04,-64.51 -23.4,-26.87 -41.47,-57.54 -54.14,-92.13 -12.78,-34.47 -19.17,-69.8 -19.17,-105.93 0,-37.74 6.79,-73.88 20.32,-108.37 13.51,-34.58 32.26,-65.09 56.12,-91.72 23.96,-26.5 52.14,-47.65 84.49,-63.32 32.41,-15.67 67.49,-23.46 105.23,-23.46 39.29,0 75.34,8.29 108.02,25.04 32.66,16.76 60.53,38.71 83.66,65.75 23.13,27.12 41.03,57.79 53.8,92.11 12.77,34.26 19.15,69.15 19.15,104.8 0,37.74 -6.79,73.79 -20.38,108.35 -13.52,34.52 -32.11,64.95 -55.8,91.31 -23.65,26.26 -51.65,47.25 -84,62.92 -32.41,15.67 -67.49,23.46 -105.21,23.46zm-209.59 -286.85l0 0c0,30.83 5.06,60.42 15.1,88.87 10.11,28.43 24.44,53.63 43.02,75.7 18.67,22.05 40.62,39.54 66.18,52.55 25.51,13.03 53.97,19.59 85.29,19.59 31.85,0 60.78,-6.97 86.82,-20.72 26.04,-13.87 48.08,-31.85 66.17,-54.25 18.08,-22.28 31.99,-47.49 41.87,-75.69 9.86,-28.11 14.75,-56.87 14.75,-86.05 0,-30.85 -5.23,-60.45 -15.6,-88.88 -10.36,-28.45 -24.79,-53.49 -43.43,-75.29 -18.58,-21.81 -40.64,-39.23 -66.08,-52.24 -25.52,-13 -53.72,-19.49 -84.49,-19.49 -31.92,0 -60.84,6.82 -86.88,20.32 -26.05,13.6 -48.09,31.52 -66.16,53.82 -18.1,22.28 -32.01,47.51 -41.88,75.7 -9.78,28.19 -14.67,56.86 -14.67,86.07zm582.53 282.87l0 0 0 -565.77 238.28 0c24.46,0 47.1,5.14 67.73,15.49 20.74,10.39 38.57,23.97 53.39,40.64 14.93,16.74 26.45,35.7 34.73,57.03 8.22,21.22 12.28,42.72 12.28,64.52 0,20.71 -2.99,40.55 -9.13,59.34 -6.14,18.91 -14.76,35.92 -25.95,51 -11.11,15.18 -24.38,27.93 -39.8,38.31 -15.42,10.36 -32.65,17.4 -51.82,21.06l139.45 218.38 -62.91 0 -133.91 -208.76 -167.4 0 0 208.76 -54.96 0zm54.96 -258.16l0 0 185.73 0c16.48,0 31.49,-3.59 45.01,-10.79 13.62,-7.13 25.13,-16.84 34.65,-29.1 9.64,-12.2 17.01,-26.05 22.31,-41.37 5.4,-15.42 8.05,-31.68 8.05,-48.66 0,-17.01 -3.08,-33.35 -9.21,-49.01 -6.14,-15.68 -14.34,-29.36 -24.69,-41.05 -10.37,-11.69 -22.56,-20.97 -36.65,-27.86 -14.1,-6.96 -28.86,-10.36 -44.28,-10.36l-180.91 0 0 258.2zm471.01 258.16l0 0 0 -565.03 54.98 0 0 328.42 311.66 -329.16 61.34 0 -231.08 248.63 243.85 317.13 -61.36 0 -216.8 -284.44 -107.62 110.74 0 173.71 -54.98 0z"/>
    </g>
   </g>
  </g>
 </g>
</svg>
